<svg xmlns="http://www.w3.org/2000/svg" xmlns:xlink="http://www.w3.org/1999/xlink" width="375" zoomAndPan="magnify" viewBox="0 0 281.25 608.999982" height="812" preserveAspectRatio="xMidYMid meet" version="1.0"><defs><g/><clipPath id="bddd23da2a"><rect x="0" width="271" y="0" height="194"/></clipPath></defs><g transform="matrix(1, 0, 0, 1, 2, 207)"><g clip-path="url(#bddd23da2a)"><g fill="#a5b2ba" fill-opacity="1"><g transform="translate(1.27675, 144.315148)"><g><path d="M 6.734375 -17.875 L 6.734375 -36.859375 L 50.1875 -99.015625 L 76.453125 -99.015625 L 76.453125 -38.234375 L 87.734375 -38.234375 L 87.734375 -17.875 L 76.453125 -17.875 L 76.453125 0 L 52.9375 0 L 52.9375 -17.875 Z M 54.59375 -73.15625 L 31.484375 -38.234375 L 54.59375 -38.234375 Z M 54.59375 -73.15625 "/></g></g></g><g fill="#a5b2ba" fill-opacity="1"><g transform="translate(88.605037, 144.315148)"><g/></g></g><g fill="#a5b2ba" fill-opacity="1"><g transform="translate(111.981016, 144.315148)"><g/></g></g><g fill="#a5b2ba" fill-opacity="1"><g transform="translate(135.356996, 144.315148)"><g/></g></g><g fill="#a5b2ba" fill-opacity="1"><g transform="translate(158.732976, 144.315148)"><g/></g></g><g fill="#a5b2ba" fill-opacity="1"><g transform="translate(182.110328, 144.315148)"><g><path d="M 6.734375 -17.875 L 6.734375 -36.859375 L 50.1875 -99.015625 L 76.453125 -99.015625 L 76.453125 -38.234375 L 87.734375 -38.234375 L 87.734375 -17.875 L 76.453125 -17.875 L 76.453125 0 L 52.9375 0 L 52.9375 -17.875 Z M 54.59375 -73.15625 L 31.484375 -38.234375 L 54.59375 -38.234375 Z M 54.59375 -73.15625 "/></g></g></g></g></g></svg>